# xmcd
#
# Track frame offsets: 
#        150
#        9997
#        21907
#        34491
#        48225
#        67245
#        84559
#        94964
#        108135
#        119313
#        130410
#        140559
#
# Disc length: 2061 seconds
#
# Revision: 0
# Processed by: cddbd v1.5.2PL0 Copyright (c) Steve Scherf et al.
# Submitted via: ExactAudioCopy v0.95b3
#
DISCID=a6080b0c
DTITLE=The Who  - Direct Hits (1968) [VINYL] (200 gram Classic Records
DTITLE=re-issue, 2008, 16-bit audio)  FLAC
DYEAR=1900
DGENRE=
TTITLE0=Bucket T
TTITLE1=I'm A Boy
TTITLE2=Pictures Of Lily
TTITLE3=Doctor Doctor
TTITLE4=I Can See For Miles
TTITLE5=Substitute
TTITLE6=Happy Jack
TTITLE7=The Last Time
TTITLE8=In The City
TTITLE9=Call Me Lightning
TTITLE10=Mary Anne With the Shaky Hand
TTITLE11=Dogs
EXTD=
EXTT0=
EXTT1=
EXTT2=
EXTT3=
EXTT4=
EXTT5=
EXTT6=
EXTT7=
EXTT8=
EXTT9=
EXTT10=
EXTT11=
PLAYORDER=
